<svg xmlns="http://www.w3.org/2000/svg" viewBox="0 0 23 22">
  <g fill="none" fill-rule="evenodd">
    <path fill="#FBED21"
      d="M14.23 1.01a6.44 6.44 0 0 1-6.6 6.61A7.03 7.03 0 0 1 .78.77L14.23 1zM21.87 21.87A7.03 7.03 0 0 1 15.02 15a6.44 6.44 0 0 1 6.6-6.6l.25 13.46z" />
    <path fill="#000227"
      d="M8.6 14.04s2.62.1 5.65-.7L9.3 8.4c-.79 3.02-.7 5.64-.7 5.64M12 2.88c-.65.77-1.18 1.63-1.6 2.5l6.86 6.87c.88-.43 1.73-.95 2.5-1.6L12 2.88z" />
    <path fill="#FBED21"
      d="M20.42 10.05c.5-.5.9-1.06 1.2-1.64l-7.39-7.4A6.83 6.83 0 0 0 12 2.88l7.76 7.77.66-.6M9.3 8.4l4.95 4.94c.98-.26 2.01-.61 3-1.1L10.4 5.4c-.48 1-.84 2.02-1.1 3" />
    <path fill="#000227" d="M20.88 1.77c-1.72-1.72-4.4-1.94-6.65-.75l7.4 7.39c1.18-2.24.96-4.93-.75-6.64" />
  </g>
</svg>
